<svg viewBox="0 0 65.3997 22.872" xmlns="http://www.w3.org/2000/svg" xmlns:xlink="http://www.w3.org/1999/xlink" width="65.399658" height="22.872002" fill="none" customFrame="#000000">
	<rect id="Logo" width="65.399567" height="22.872002" x="0.000000" y="0.000000" />
	<path id="Logo Vector" d="M30.6734 0L30.6734 17.592L33.8174 17.592L33.8174 17.4L33.7934 16.752C34.3934 17.472 35.8574 17.904 36.7694 17.904C40.4894 17.904 42.6495 15.576 42.6495 11.976C42.6495 8.784 40.5374 6.024 36.7694 6.024C35.7134 6.024 34.1774 6.408 33.6734 7.08L33.7214 6.264L33.7214 0L30.6734 0ZM6.096 17.5C8.016 17.5 13.1266 17.352 14.1826 16.08L8.88 13.54C8.256 14.332 7.104 14.716 6.096 14.716C4.392 14.716 3.096 13.564 3.096 11.5C3.096 9.604 4.488 8.308 6.096 8.308C7.224 8.308 8.064 8.644 8.832 9.484L14.2306 7.992C13.1746 6.72 7.92 5.524 6.096 5.524C2.328 5.524 0 7.972 0 11.5C0 15.052 2.304 17.5 6.096 17.5ZM62.9276 8.856C63.5756 8.856 64.1276 8.928 64.7516 9.144L65.3996 6.336C64.6796 6.072 63.4796 6 62.8076 6C61.2476 6 59.6396 6.336 58.7036 6.816L58.7036 17.592L61.7996 17.592L61.7996 9.024C62.1356 8.88 62.4956 8.856 62.9276 8.856ZM55.3377 16.152C54.4497 17.304 52.4098 18 50.6578 18C46.8418 18 44.7058 15.384 44.7058 12C44.7058 8.544 46.8178 6.024 50.5378 6.024C54.2338 6.024 56.3457 8.544 56.3457 12C56.3457 12.384 56.3457 12.624 56.3217 12.96L47.8258 12.96C47.9938 14.376 49.0498 15.264 50.6578 15.264C51.8098 15.264 52.8897 14.88 53.5617 14.136L55.3377 16.152ZM21.8195 22.872L18.3875 22.872L20.6195 17.712L15.7955 6.312L19.2035 6.312L21.6035 12.408L22.2995 14.592L22.9715 12.408L25.3715 6.312L28.8035 6.312L21.8195 22.872ZM47.8738 10.896L53.1537 10.896C53.0097 9.624 51.9538 8.76 50.5378 8.76C49.1218 8.76 47.9938 9.624 47.8738 10.896ZM33.6734 11.976C33.6734 10.176 34.9214 8.856 36.6494 8.856C38.3294 8.856 39.4814 10.104 39.4814 11.976C39.4814 13.824 38.3294 15.072 36.6494 15.072C34.9214 15.072 33.6734 13.752 33.6734 11.976Z" fill="rgb(0,0,0)" fill-rule="evenodd" />
</svg>
