<svg viewBox="0 0 32 32" xmlns="http://www.w3.org/2000/svg" xmlns:xlink="http://www.w3.org/1999/xlink" width="32.000000" height="32.000000" fill="none">
	<rect id="Icon/32px/User" width="32.000000" height="32.000000" x="0.000000" y="0.000000" fill="rgb(255,255,255)" fill-opacity="0" />
	<path id="Vector" d="M24 27L24 24.3333C24 22.9188 23.5224 21.5623 22.6722 20.5621C21.8221 19.5619 20.669 19 19.4667 19L11.5333 19C10.331 19 9.17795 19.5619 8.32778 20.5621C7.47762 21.5623 7 22.9188 7 24.3333L7 27M16.5 14C14.0147 14 12 11.9853 12 9.5C12 7.01472 14.0147 5 16.5 5C18.9853 5 21 7.01472 21 9.5C21 11.9853 18.9853 14 16.5 14Z" fill-rule="evenodd" stroke="rgb(0,0,0)" stroke-linecap="round" stroke-linejoin="round" stroke-width="1.5" />
</svg>
